<svg class="main-svg" xmlns="http://www.w3.org/2000/svg" xmlns:xlink="http://www.w3.org/1999/xlink" width="700" height="500" style="" viewBox="0 0 700 500"><rect x="0" y="0" width="700" height="500" style="fill: rgb(255, 255, 255); fill-opacity: 1;"/><defs id="defs-8cf4a5"><g class="clips"><clipPath id="clip8cf4a5xyplot" class="plotclip"><rect width="525" height="320"/></clipPath><clipPath class="axesclip" id="clip8cf4a5x"><rect x="80" y="0" width="525" height="500"/></clipPath><clipPath class="axesclip" id="clip8cf4a5y"><rect x="0" y="100" width="700" height="320"/></clipPath><clipPath class="axesclip" id="clip8cf4a5xy"><rect x="80" y="100" width="525" height="320"/></clipPath></g><g class="gradients"/></defs><g class="bglayer"><rect class="bg" x="80" y="100" width="525" height="320" style="fill: rgb(229, 236, 246); fill-opacity: 1; stroke-width: 0;"/></g><g class="layer-below"><g class="imagelayer"/><g class="shapelayer"/></g><g class="cartesianlayer"><g class="subplot xy"><g class="layer-subplot"><g class="shapelayer"/><g class="imagelayer"/></g><g class="gridlayer"><g class="x"><path class="xgrid crisp" transform="translate(196.64,0)" d="M0,100v320" style="stroke: rgb(255, 255, 255); stroke-opacity: 1; stroke-width: 1px;"/><path class="xgrid crisp" transform="translate(430.34,0)" d="M0,100v320" style="stroke: rgb(255, 255, 255); stroke-opacity: 1; stroke-width: 1px;"/><path class="xgrid crisp" transform="translate(547.19,0)" d="M0,100v320" style="stroke: rgb(255, 255, 255); stroke-opacity: 1; stroke-width: 1px;"/></g><g class="y"><path class="ygrid crisp" transform="translate(0,354.65999999999997)" d="M80,0h525" style="stroke: rgb(255, 255, 255); stroke-opacity: 1; stroke-width: 1px;"/><path class="ygrid crisp" transform="translate(0,305.33000000000004)" d="M80,0h525" style="stroke: rgb(255, 255, 255); stroke-opacity: 1; stroke-width: 1px;"/><path class="ygrid crisp" transform="translate(0,255.99)" d="M80,0h525" style="stroke: rgb(255, 255, 255); stroke-opacity: 1; stroke-width: 1px;"/><path class="ygrid crisp" transform="translate(0,206.65)" d="M80,0h525" style="stroke: rgb(255, 255, 255); stroke-opacity: 1; stroke-width: 1px;"/><path class="ygrid crisp" transform="translate(0,157.32)" d="M80,0h525" style="stroke: rgb(255, 255, 255); stroke-opacity: 1; stroke-width: 1px;"/><path class="ygrid crisp" transform="translate(0,107.98)" d="M80,0h525" style="stroke: rgb(255, 255, 255); stroke-opacity: 1; stroke-width: 1px;"/></g></g><g class="zerolinelayer"><path class="xzl zl crisp" transform="translate(313.49,0)" d="M0,100v320" style="stroke: rgb(255, 255, 255); stroke-opacity: 1; stroke-width: 2px;"/><path class="yzl zl crisp" transform="translate(0,404)" d="M80,0h525" style="stroke: rgb(255, 255, 255); stroke-opacity: 1; stroke-width: 2px;"/></g><path class="xlines-below"/><path class="ylines-below"/><g class="overlines-below"/><g class="xaxislayer-below"/><g class="yaxislayer-below"/><g class="overaxes-below"/><g class="plot" transform="translate(80,100)" clip-path="url('#clip8cf4a5xyplot')"><g class="scatterlayer mlayer"><g class="trace scatter tracec91115" style="stroke-miterlimit: 2; opacity: 1;"><g class="fills"/><g class="errorbars"/><g class="lines"><path class="js-line" d="M0,304L43.75,303.39L44.21,303.11L45.59,301.37L46.05,300.33L47.43,294.72L47.89,291.67L49.28,277.13L49.74,270.02L51.58,227.22L52.04,212.75L57.57,29.01L58.03,25.92L58.49,26.27L58.95,30.05L60.33,59.97L60.79,74.96L66.32,263.39L66.78,271.57L69.08,295.26L69.54,297.52L71.38,302.27L71.84,302.8L74.14,303.84L74.61,303.89L84.28,304L84.74,304L102.24,303.36L102.7,303.06L104.08,301.25L104.54,300.17L105.92,294.36L106.38,291.21L108.22,268.97L108.68,260.32L110.99,194.69L111.45,177.48L115.59,34.38L116.05,28.4L116.51,25.77L116.97,26.58L117.43,30.8L118.82,61.84L119.28,77.09L124.8,264.56L125.26,272.56L127.57,295.59L128.03,297.78L129.87,302.35L130.33,302.85L132.63,303.85L133.09,303.9L142.76,304L143.22,304L160.72,303.32L161.18,303.01L162.57,301.13L163.03,300L164.41,293.98L164.87,290.73L166.71,267.91L167.17,259.07L169.47,192.47L169.93,175.12L174.08,33.4L174.54,27.86L175,25.68L175.46,26.94L175.92,31.61L177.3,63.75L177.76,79.25L183.29,265.7L183.75,273.52L186.05,295.92L186.51,298.03L188.36,302.43L188.82,302.91L191.12,303.85L191.58,303.91L204.47,304L204.93,304L219.21,303.29L219.67,302.96L221.05,301L221.51,299.83L222.89,293.6L223.36,290.24L225.2,266.82L225.66,257.78L227.96,190.22L228.42,172.75L232.57,32.48L233.03,27.37L233.49,25.65L233.95,27.37L234.87,40.78L235.33,51.99L238.09,154.46L238.55,172.75L241.32,257.78L241.78,266.82L244.08,293.6L244.54,296.23L246.38,301.87L246.84,302.5L249.14,303.79L249.61,303.86L257.43,304L257.89,304L277.7,303.25L278.16,302.91L279.54,300.86L280,299.64L281.38,293.19L281.84,289.73L283.68,265.7L284.14,256.48L286.45,187.96L286.91,170.36L291.05,31.61L291.51,26.94L291.97,25.68L292.43,27.86L293.36,42.11L293.82,53.67L296.58,156.92L297.04,175.12L299.8,259.07L300.26,267.91L302.57,293.98L303.03,296.53L304.87,301.96L305.33,302.57L307.63,303.8L308.09,303.87L315.92,304L316.38,304L335.72,303.47L336.18,303.21L337.57,301.66L338.03,300.72L339.41,295.59L339.87,292.78L341.25,279.24L341.71,272.56L343.55,231.76L344.01,217.78L349.54,30.8L350,26.58L350.46,25.77L350.92,28.4L352.3,55.4L352.76,69.69L358.75,268.97L359.21,276.26L361.51,296.82L361.97,298.73L363.82,302.64L364.28,303.06L366.58,303.88L367.04,303.92L379.47,304L379.93,304L394.21,303.44L394.67,303.17L396.05,301.55L396.51,300.57L397.89,295.26L398.36,292.35L399.74,278.43L400.2,271.57L402.04,229.99L402.5,215.82L408.03,30.05L408.49,26.27L408.95,25.92L409.41,29.01L410.79,57.16L411.25,71.74L417.24,270.02L417.7,277.13L420,297.11L420.46,298.94L422.3,302.7L422.76,303.11L425.53,303.93L425.99,303.95L443.95,304L444.41,304L452.7,303.41L453.16,303.13L454.54,301.44L455,300.42L456.38,294.91L456.84,291.91L458.68,270.57L459.14,262.2L460.99,213.83L461.45,198.06L466.51,29.36L466.97,26.03L467.43,26.13L467.89,29.67L469.28,58.97L469.74,73.82L475.26,262.76L475.72,271.03L478.03,295.07L478.49,297.38L480.33,302.23L480.79,302.77L483.09,303.83L483.55,303.89L493.22,304L493.68,304L525,304" style="vector-effect: non-scaling-stroke; fill: none; stroke: rgb(99, 110, 250); stroke-opacity: 1; stroke-width: 2px; opacity: 1;"/></g><g class="points"/><g class="text"/></g><g class="trace scatter trace4380e3" style="stroke-miterlimit: 2; opacity: 1;"><g class="fills"/><g class="errorbars"/><g class="lines"><path class="js-line" d="M0,303.86L27.63,304L28.09,304L39.61,303.25L40.07,303.07L42.37,301.3L42.83,300.65L44.67,296.13L45.13,294.28L46.97,282L47.43,277.26L49.28,248.66L49.74,238.67L52.5,154.84L52.96,138.22L56.18,44.96L56.64,39.94L57.11,37.95L57.57,39.11L58.03,43.42L59.41,73.69L59.87,88.52L65.39,272.11L65.86,279.57L67.7,297.24L68.16,299.4L70,303.27L70.46,303.57L73.22,303.86L73.68,303.85L99.47,303.41L99.93,303.23L101.78,301.77L102.24,301.1L103.62,297.8L104.08,296.07L105.92,283.92L106.38,279.06L108.22,249.04L108.68,238.44L111.45,149.72L111.91,132.39L115.13,39.37L115.59,35.18L116.05,34.15L116.51,36.34L117.9,61.16L118.36,74.63L124.34,270.83L124.8,278.08L126.64,295.7L127.11,297.99L128.95,302.57L129.41,303.03L131.71,303.85L132.17,303.88L145.53,304L145.99,304L158.42,303.27L158.88,303.04L160.72,301.21L161.18,300.39L162.57,296.3L163.03,294.18L164.87,279.43L165.33,273.6L167.17,238.25L167.63,226L170.86,109.04L171.32,91.04L173.62,24.18L174.08,18.46L174.54,16L175,16.9L175.46,21.14L176.84,52.07L177.3,67.33L182.83,260.51L183.29,269.06L185.59,294.06L186.05,296.48L187.89,301.68L188.36,302.28L190.66,303.59L191.12,303.69L198.03,303.99L198.49,304L217.37,303.26L217.83,303.04L219.67,301.29L220.13,300.49L221.51,296.48L221.97,294.37L223.82,279.52L224.28,273.61L226.12,237.81L226.58,225.48L230.26,94.8L230.72,79.24L232.57,37.63L233.03,34.16L233.49,33.88L233.95,36.8L235.33,63.34L235.79,77.12L241.78,268.89L242.24,275.99L244.54,296.23L245,298.14L246.84,302.19L247.3,302.65L249.61,303.67L250.07,303.74L257.43,303.99L257.89,303.99L274.93,303.63L275.39,303.54L278.16,302.11L278.62,301.57L280,298.77L280.46,297.25L281.84,289.68L282.3,285.8L284.14,260.21L284.61,250.76L286.91,184.13L287.37,167.82L291.05,59.08L291.51,54.43L291.97,52.77L292.43,54.15L293.36,65.72L293.82,75.5L296.58,166.12L297.04,182.47L300.26,267.64L300.72,274.71L303.03,295.3L303.49,297.32L305.33,301.74L305.79,302.28L308.09,303.53L308.55,303.63L315.46,303.98L315.92,303.99L334.8,303.36L335.26,303.19L337.11,301.83L337.57,301.18L338.95,297.77L339.41,295.88L340.79,286.55L341.25,281.78L343.09,250.79L343.55,239.53L346.32,144.26L346.78,125.79L349.54,36.97L350,30.03L350.92,25.58L351.38,28.2L352.76,53.77L353.22,67.19L359.21,258.36L359.67,266.1L361.97,290.08L362.43,292.71L364.74,300.07L365.2,300.81L367.5,302.87L367.96,303.08L372.11,303.86L372.57,303.89L388.68,303.87L389.14,303.84L396.05,302.71L396.51,302.36L397.89,300.11L398.36,298.7L399.74,290.89L400.2,286.63L402.04,257.53L402.5,246.7L405.26,154.97L405.72,137.49L408.49,57.67L408.95,52.43L409.41,50.22L409.87,51.07L410.33,54.93L411.71,82.39L412.17,95.73L417.7,260.34L418.16,267.86L420.46,291.21L420.92,293.76L423.22,300.76L423.68,301.44L425.99,303.21L426.45,303.38L431.05,303.94L431.51,303.96L452.24,303.67L452.7,303.64L455,302.99L455.46,302.56L456.84,299.63L457.3,297.76L458.68,287.62L459.14,282.19L460.99,246.2L461.45,233.19L464.67,109.44L465.13,91.22L467.43,28.9L467.89,24.85L468.36,24.08L468.82,26.56L470.2,51.71L470.66,64.93L477.11,262.55L477.57,269.44L479.87,290.95L480.33,293.36L482.63,300.24L483.09,300.95L485.39,302.93L485.86,303.13L490,303.87L490.46,303.89L509.34,303.97L509.8,303.97L525,303.64" style="vector-effect: non-scaling-stroke; fill: none; stroke: rgb(239, 85, 59); stroke-opacity: 1; stroke-width: 2px; opacity: 1;"/></g><g class="points"/><g class="text"/></g></g></g><g class="overplot"/><path class="xlines-above crisp" d="M0,0" style="fill: none;"/><path class="ylines-above crisp" d="M0,0" style="fill: none;"/><g class="overlines-above"/><g class="xaxislayer-above"><g class="xtick"><text text-anchor="middle" x="0" y="433" transform="translate(196.64,0)" style="font-family: 'Open Sans', verdana, arial, sans-serif; font-size: 12px; fill: rgb(42, 63, 95); fill-opacity: 1; white-space: pre;">−20</text></g><g class="xtick"><text text-anchor="middle" x="0" y="433" transform="translate(313.49,0)" style="font-family: 'Open Sans', verdana, arial, sans-serif; font-size: 12px; fill: rgb(42, 63, 95); fill-opacity: 1; white-space: pre;">0</text></g><g class="xtick"><text text-anchor="middle" x="0" y="433" transform="translate(430.34,0)" style="font-family: 'Open Sans', verdana, arial, sans-serif; font-size: 12px; fill: rgb(42, 63, 95); fill-opacity: 1; white-space: pre;">20</text></g><g class="xtick"><text text-anchor="middle" x="0" y="433" transform="translate(547.19,0)" style="font-family: 'Open Sans', verdana, arial, sans-serif; font-size: 12px; fill: rgb(42, 63, 95); fill-opacity: 1; white-space: pre;">40</text></g></g><g class="yaxislayer-above"><g class="ytick"><text text-anchor="end" x="79" y="4.199999999999999" transform="translate(0,404)" style="font-family: 'Open Sans', verdana, arial, sans-serif; font-size: 12px; fill: rgb(42, 63, 95); fill-opacity: 1; white-space: pre;">0</text></g><g class="ytick"><text text-anchor="end" x="79" y="4.199999999999999" transform="translate(0,354.65999999999997)" style="font-family: 'Open Sans', verdana, arial, sans-serif; font-size: 12px; fill: rgb(42, 63, 95); fill-opacity: 1; white-space: pre;">0.1</text></g><g class="ytick"><text text-anchor="end" x="79" y="4.199999999999999" transform="translate(0,305.33000000000004)" style="font-family: 'Open Sans', verdana, arial, sans-serif; font-size: 12px; fill: rgb(42, 63, 95); fill-opacity: 1; white-space: pre;">0.2</text></g><g class="ytick"><text text-anchor="end" x="79" y="4.199999999999999" transform="translate(0,255.99)" style="font-family: 'Open Sans', verdana, arial, sans-serif; font-size: 12px; fill: rgb(42, 63, 95); fill-opacity: 1; white-space: pre;">0.3</text></g><g class="ytick"><text text-anchor="end" x="79" y="4.199999999999999" transform="translate(0,206.65)" style="font-family: 'Open Sans', verdana, arial, sans-serif; font-size: 12px; fill: rgb(42, 63, 95); fill-opacity: 1; white-space: pre;">0.4</text></g><g class="ytick"><text text-anchor="end" x="79" y="4.199999999999999" transform="translate(0,157.32)" style="font-family: 'Open Sans', verdana, arial, sans-serif; font-size: 12px; fill: rgb(42, 63, 95); fill-opacity: 1; white-space: pre;">0.5</text></g><g class="ytick"><text text-anchor="end" x="79" y="4.199999999999999" transform="translate(0,107.98)" style="font-family: 'Open Sans', verdana, arial, sans-serif; font-size: 12px; fill: rgb(42, 63, 95); fill-opacity: 1; white-space: pre;">0.6</text></g></g><g class="overaxes-above"/></g></g><g class="polarlayer"/><g class="ternarylayer"/><g class="geolayer"/><g class="funnelarealayer"/><g class="pielayer"/><g class="treemaplayer"/><g class="sunburstlayer"/><g class="glimages"/><defs id="topdefs-8cf4a5"><g class="clips"/><clipPath id="legend8cf4a5"><rect width="73" height="48" x="0" y="0"/></clipPath></defs><g class="layer-above"><g class="imagelayer"/><g class="shapelayer"/></g><g class="infolayer"><g class="legend" pointer-events="all" transform="translate(615.5,100)"><rect class="bg" shape-rendering="crispEdges" width="73" height="48" x="0" y="0" style="stroke: rgb(68, 68, 68); stroke-opacity: 1; fill: rgb(255, 255, 255); fill-opacity: 1; stroke-width: 0px;"/><g class="scrollbox" transform="" clip-path="url('#legend8cf4a5')"><g class="groups"><g class="traces" transform="translate(0,14.5)" style="opacity: 1;"><text class="legendtext" text-anchor="start" x="40" y="4.680000000000001" style="font-family: 'Open Sans', verdana, arial, sans-serif; font-size: 12px; fill: rgb(42, 63, 95); fill-opacity: 1; white-space: pre;">Input</text><g class="layers" style="opacity: 1;"><g class="legendfill"/><g class="legendlines"><path class="js-line" d="M5,0h30" style="fill: none; stroke: rgb(99, 110, 250); stroke-opacity: 1; stroke-width: 2px;"/></g><g class="legendsymbols"><g class="legendpoints"/></g></g><rect class="legendtoggle" x="0" y="-9.5" width="67.6875" height="19" style="fill: rgb(0, 0, 0); fill-opacity: 0;"/></g><g class="traces" transform="translate(0,33.5)" style="opacity: 1;"><text class="legendtext" text-anchor="start" x="40" y="4.680000000000001" style="font-family: 'Open Sans', verdana, arial, sans-serif; font-size: 12px; fill: rgb(42, 63, 95); fill-opacity: 1; white-space: pre;">Back</text><g class="layers" style="opacity: 1;"><g class="legendfill"/><g class="legendlines"><path class="js-line" d="M5,0h30" style="fill: none; stroke: rgb(239, 85, 59); stroke-opacity: 1; stroke-width: 2px;"/></g><g class="legendsymbols"><g class="legendpoints"/></g></g><rect class="legendtoggle" x="0" y="-9.5" width="67.6875" height="19" style="fill: rgb(0, 0, 0); fill-opacity: 0;"/></g></g></g><rect class="scrollbar" rx="20" ry="3" width="0" height="0" x="0" y="0" style="fill: rgb(128, 139, 164); fill-opacity: 1;"/></g><g class="g-gtitle"><text class="gtitle" x="35" y="50" text-anchor="start" dy="0em" style="font-family: 'Open Sans', verdana, arial, sans-serif; font-size: 17px; fill: rgb(42, 63, 95); opacity: 1; font-weight: normal; white-space: pre;">Signal intensity</text></g><g class="g-xtitle"><text class="xtitle" x="342.5" y="460.8" text-anchor="middle" style="font-family: 'Open Sans', verdana, arial, sans-serif; font-size: 14px; fill: rgb(42, 63, 95); opacity: 1; font-weight: normal; white-space: pre;">Time</text></g><g class="g-ytitle"><text class="ytitle" transform="rotate(-90,37.5125,260)" x="37.5125" y="260" text-anchor="middle" style="font-family: 'Open Sans', verdana, arial, sans-serif; font-size: 14px; fill: rgb(42, 63, 95); opacity: 1; font-weight: normal; white-space: pre;">Intensity</text></g></g></svg>